:SAMPLES-PER-SECOND 30
:FRAME-RANGE 1-2643
:FULLY-SPECIFIED
:DEGREES
744
root  44.6041 37.2382 49.3766 -174.475 47.7858 -176.791
RightUpLeg  -25.8021 0.172433 -10.2386
RightLeg  43.1832 -9.20209 -9.41295
RightFoot  -15.8885 0.227884 8.44511
RightToes  5.38607e-012 1.2921e-014 -6.02303e-014
Spine  5.87982 -0.324774 4.10126
Spine1  4.24148 0.396562 -3.34285
HEad  -0.993443 49.3709 -17.1027
LeftShoulder1  1.74299 -2.99964 -21.5382
LeftArm  4.38589 -6.08353 -59.2548
LeftForeArm  36.2322 -6.80978 -12.0436
LeftHand  -0.096383 3.5949 5.24399
RightShoulder  2.03671 3.53209 23.6755
RightArm  -30.8126 11.9628 56.698
RightForeArm  62.2529 -4.89197 -0.617351
RightHand  0.369245 -7.74782 -18.8494
LeftUpLeg  -14.4111 -9.50176 -6.89165
LeftLeg  40.622 3.80176 3.89779
LeftFoot  -21.1983 0.572901 5.16164
LeftToes  -4.79707e-012 -5.93756e-011 -7.55542e-012
745
root  46.8377 38.1292 48.4353 -172.122 43.7887 -174.42
RightUpLeg  -23.2929 1.06769 -9.19109
RightLeg  25.8952 -9.61451 -5.26322
RightFoot  -14.1625 0.128132 9.09652
RightToes  5.38607e-012 1.2921e-014 -6.02303e-014
Spine  4.24236 -1.24802 5.01577
Spine1  4.37687 -0.998829 -0.876524
HEad  1.3926 49.2384 -14.2323
LeftShoulder1  1.73191 -3.06492 -21.0508
LeftArm  4.52574 -6.67677 -60.0302
LeftForeArm  33.0901 -7.86649 -11.6608
LeftHand  -0.128853 2.92829 5.51444
RightShoulder  1.85322 2.62164 25.2124
RightArm  -31.6048 6.94372 52.0686
RightForeArm  59.7455 -5.02178 -0.36018
RightHand  0.339299 -7.63495 -18.2976
LeftUpLeg  -11.6061 -9.73947 -2.8008
LeftLeg  39.6311 0.563538 0.894192
LeftFoot  -16.5688 0.170689 1.5605
LeftToes  -4.79707e-012 -5.93756e-011 -7.55542e-012
746
root  49.18 38.6292 47.5477 -171.208 40.5021 -173.29
RightUpLeg  -21.9183 2.08511 -8.35557
RightLeg  16.5119 -5.54149 -2.22237
RightFoot  -14.3215 0.21887 12.1222
RightToes  5.38607e-012 1.2921e-014 -6.02303e-014
Spine  2.62969 -1.42553 5.59101
Spine1  4.59713 -1.39849 0.0830841
HEad  5.14484 48.0945 -9.80868
LeftShoulder1  1.54952 -2.54524 -20.2967
LeftArm  1.57072 -7.08524 -60.5277
LeftForeArm  33.5061 -7.33597 -11.3758
LeftHand  -0.123012 3.19832 5.82876
RightShoulder  1.70094 1.94782 26.3556
RightArm  -32.4317 2.34491 48.2084
RightForeArm  60.6402 -4.96899 -0.492052
RightHand  0.379042 -7.93829 -17.9701
LeftUpLeg  -11.2136 -9.6113 0.812112
LeftLeg  43.2106 -1.85206 -1.45624
LeftFoot  -10.2929 0.0814246 -2.15016
LeftToes  -4.79707e-012 -5.93756e-011 -7.55542e-012
747
root  51.5197 38.6431 46.6917 -171.531 38.1919 -172.485
RightUpLeg  -21.1377 0.0574708 -6.08105
RightLeg  15.3144 -0.550505 -0.69819
RightFoot  -16.4455 0.549498 14.769
RightToes  5.38607e-012 1.2921e-014 -6.02303e-014
Spine  2.01135 -1.28008 6.27108
Spine1  4.78706 -1.21585 0.0934289
HEad  8.03418 47.0239 -6.30007
LeftShoulder1  1.41257 -2.11024 -19.8638
LeftArm  -2.38509 -6.59045 -59.5536
LeftForeArm  32.828 -6.38378 -10.9812
LeftHand  -0.147755 2.89147 6.34621
RightShoulder  1.63564 1.67099 26.8556
RightArm  -33.1084 -0.778766 45.3701
RightForeArm  60.2844 -4.9284 -0.798286
RightHand  0.345255 -7.91263 -16.7063
LeftUpLeg  -12.8054 -10.0782 3.78044
LeftLeg  51.2233 -2.42658 -2.77354
LeftFoot  -2.24983 0.471111 -5.75374
LeftToes  -4.79707e-012 -5.93756e-011 -7.55542e-012
748
root  53.7718 38.1922 45.8575 -172.833 36.2814 -171.548
RightUpLeg  -20.5063 -1.4325 -3.30702
RightLeg  20.5968 -0.429844 -0.393796
RightFoot  -17.7907 0.792688 16.126
RightToes  5.38607e-012 1.2921e-014 -6.02303e-014
Spine  2.9151 -1.21901 7.23479
Spine1  4.73122 -1.02679 0.371749
HEad  9.27989 46.6399 -4.38748
LeftShoulder1  1.25473 -1.57684 -19.4492
LeftArm  -3.65655 -5.06086 -57.3294
LeftForeArm  29.4243 -6.21018 -10.8596
LeftHand  -0.154865 2.93106 6.78969
RightShoulder  1.61841 1.63534 26.7377
RightArm  -33.3903 -2.31568 43.4229
RightForeArm  59.0474 -4.93975 -0.972206
RightHand  0.323399 -7.9071 -15.8097
LeftUpLeg  -15.0948 -11.7123 5.98761
LeftLeg  61.1657 -1.8079 -2.96393
LeftFoot  5.96001 0.977671 -6.66038
LeftToes  -4.79707e-012 -5.93756e-011 -7.55542e-012
749
root  55.9793 37.4616 44.9984 -174.644 34.6279 -171.037
RightUpLeg  -19.7552 -3.60932 -0.777552
RightLeg  27.7897 0.108947 -0.173594
RightFoot  -15.8326 0.500104 15.4218
RightToes  5.38607e-012 1.2921e-014 -6.02303e-014
Spine  3.57233 -1.18011 8.29698
Spine1  5.37914 -0.693034 0.431804
HEad  8.64128 47.5935 -4.17279
LeftShoulder1  1.14652 -1.27801 -18.7092
LeftArm  -5.25914 -3.04165 -54.6281
LeftForeArm  28.6398 -5.35542 -10.7514
LeftHand  -0.128074 3.43364 6.80902
RightShoulder  1.6036 1.66977 26.1909
RightArm  -33.1432 -2.08944 42.1906
RightForeArm  59.552 -4.93647 -0.894097
RightHand  0.330536 -7.92756 -15.9951
LeftUpLeg  -17.3855 -13.5745 7.26235
LeftLeg  70.8981 -0.772828 -1.60072
LeftFoot  7.36149 0.906697 -5.77599
LeftToes  -4.79707e-012 -5.93756e-011 -7.55542e-012
750
root  58.1601 36.5591 44.1881 -176.646 33.6384 -170.419
RightUpLeg  -20.081 -2.67846 1.8873
RightLeg  38.7712 -1.87839 -1.90043
RightFoot  -15.5252 0.265857 10.1449
RightToes  5.38607e-012 1.2921e-014 -6.02303e-014
Spine  5.00697 -1.05084 9.42219
Spine1  5.4276 -0.13584 -0.101233
HEad  5.61556 51.2195 -6.44388
LeftShoulder1  1.04833 -0.988591 -18.0586
LeftArm  -6.97541 -0.669278 -51.8005
LeftForeArm  28.2713 -3.55128 -10.5873
LeftHand  -0.112754 3.7951 7.13714
RightShoulder  1.60337 1.79577 25.3559
RightArm  -32.4058 -0.348002 41.3112
RightForeArm  59.1195 -5.0166 -0.511619
RightHand  0.34986 -7.88851 -17.0505
LeftUpLeg  -19.9789 -14.1599 8.52822
LeftLeg  79.6139 -0.232238 0.247968
LeftFoot  3.01977 0.409739 -3.39788
LeftToes  -4.79707e-012 -5.93756e-011 -7.55542e-012
751
root  60.2584 35.5831 43.345 -179.302 32.7117 -169.344
RightUpLeg  -17.1057 -5.63831 4.42835
RightLeg  47.0602 -0.607338 -1.0308
RightFoot  -22.9989 0.575571 7.16024
RightToes  5.38607e-012 1.2921e-014 -6.02303e-014
Spine  7.71862 -0.759867 9.54807
Spine1  5.66106 0.0247832 -0.0609965
HEad  -0.987905 56.5864 -13.0132
LeftShoulder1  1.10179 -0.936585 -19.7395
LeftArm  -7.68931 0.847535 -48.2095
LeftForeArm  25.8694 -0.433515 -10.4175
LeftHand  -0.101863 4.08993 7.70937
RightShoulder  1.58345 1.85971 24.5421
RightArm  -30.8647 3.76365 39.6731
RightForeArm  57.8325 -5.19779 0.300317
RightHand  0.421775 -8.06957 -18.8676
LeftUpLeg  -22.2989 -14.7435 9.38188
LeftLeg  85.8517 -0.174868 2.54134
LeftFoot  -0.65789 0.130778 -1.3566
LeftToes  -4.79707e-012 -5.93756e-011 -7.55542e-012
752
root  62.1482 35.1134 42.3982 179.277 30.6935 -170.332
RightUpLeg  -14.2112 -6.65327 5.33478
RightLeg  50.5052 -1.64701 -2.51148
RightFoot  -28.3721 0.811381 6.70208
RightToes  5.38607e-012 1.2921e-014 -6.02303e-014
Spine  8.05711 -0.591184 9.1469
Spine1  6.21505 0.171746 0.625426
HEad  -8.40393 61.273 -19.5213
LeftShoulder1  1.20385 -1.26756 -20.119
LeftArm  -8.42762 2.48613 -46.0313
LeftForeArm  25.571 3.97885 -10.157
LeftHand  -0.0582728 4.79495 7.7545
RightShoulder  1.59417 1.99181 23.9526
RightArm  -29.8121 7.4063 39.0924
RightForeArm  58.0241 -5.28588 0.853138
RightHand  0.483144 -8.19823 -20.4055
LeftUpLeg  -27.2887 -15.5325 7.72264
LeftLeg  87.0391 -0.186276 4.8523
LeftFoot  -4.34179 -0.0692258 1.55999
LeftToes  -4.79707e-012 -5.93756e-011 -7.55542e-012
753
root  63.9986 35.0276 41.3231 178.484 31.1484 -171.734
RightUpLeg  -10.6055 -6.48809 5.66259
RightLeg  50.8285 -1.88115 -2.84812
RightFoot  -31.8373 0.806829 5.6593
RightToes  5.38607e-012 1.2921e-014 -6.02303e-014
Spine  7.43318 0.586673 10.3349
Spine1  6.92821 2.04265 -2.10826
HEad  -13.2113 64.3904 -23.5861
LeftShoulder1  0.995508 -0.433785 -20.4338
LeftArm  -8.8059 3.44013 -44.4309
LeftForeArm  28.5513 7.48069 -10.1052
LeftHand  -0.00953042 5.63698 6.54164
RightShoulder  1.81942 2.83154 23.5074
RightArm  -29.4465 9.9346 39.6745
RightForeArm  58.8137 -5.28382 0.992795
RightHand  0.513468 -8.2282 -21.343
LeftUpLeg  -30.9346 -13.4975 5.22145
LeftLeg  82.8879 0.330785 6.65639
LeftFoot  -7.70519 0.00917326 1.17132
LeftToes  -4.79707e-012 -5.93756e-011 -7.55542e-012
754
root  65.8059 35.3896 40.0967 178.083 32.4307 -173.766
RightUpLeg  -6.22204 -5.80357 5.09061
RightLeg  47.8757 -1.80322 -2.47867
RightFoot  -33.0902 0.666879 4.6441
RightToes  5.38607e-012 1.2921e-014 -6.02303e-014
Spine  6.19814 2.15725 11.456
Spine1  7.3846 4.39473 -5.49239
HEad  -14.3945 65.9109 -24.804
LeftShoulder1  0.752817 0.482749 -20.4793
LeftArm  -8.47077 6.01498 -43.3964
LeftForeArm  30.2462 7.531 -10.5579
LeftHand  -0.0032121 5.9057 5.17855
RightShoulder  2.06121 3.86202 22.5897
RightArm  -29.6969 12.2152 41.8107
RightForeArm  60.2032 -5.17965 0.652941
RightHand  0.456957 -7.88942 -21.5961
LeftUpLeg  -32.6578 -10.7417 1.74617
LeftLeg  73.3324 2.06503 8.86275
LeftFoot  -11.3213 0.0677138 1.76754
LeftToes  -4.79707e-012 -5.93756e-011 -7.55542e-012
755
root  67.5891 36.1487 38.7748 178.502 33.2817 -175.764
RightUpLeg  -2.27864 -4.94073 4.39835
RightLeg  43.4751 -1.51565 -1.84705
RightFoot  -31.0101 0.69923 5.24911
RightToes  5.38607e-012 1.2921e-014 -6.02303e-014
Spine  4.56265 3.72422 11.8578
Spine1  7.03948 6.32654 -7.91587
HEad  -14.1019 66.4318 -25.2931
LeftShoulder1  0.516113 1.38553 -20.7045
LeftArm  -5.92245 9.84524 -42.3185
LeftForeArm  28.4646 7.74059 -11.752
LeftHand  -0.00407219 5.98617 4.53234
RightShoulder  2.17339 4.51665 21.5652
RightArm  -29.4029 14.3615 44.778
RightForeArm  61.2333 -5.12563 0.541679
RightHand  0.413495 -7.68573 -21.3472
LeftUpLeg  -32.7157 -8.74554 -1.57121
LeftLeg  58.6167 5.67336 10.4827
LeftFoot  -11.8205 0.0752923 1.02925
LeftToes  -4.79707e-012 -5.93756e-011 -7.55542e-012
